<svg xmlns="http://www.w3.org/2000/svg" xml:space="preserve" viewBox="0 0 122.88 112.75">
  <path d="M56.66 105.35A35.16 35.16 0 1 1 18.7 46.46a41.7 41.7 0 0 0 27.44 28.4q-.09 1.35-.09 2.73a41.6 41.6 0 0 0 10.61 27.76" style="fill-rule:evenodd;clip-rule:evenodd;fill:#6bbe66"/>
  <path d="M122.88 77.59a35.16 35.16 0 1 1-70.32 0l.02-1.23q3.05.45 6.23.46c11.5 0 21.92-4.66 29.46-12.2a41.6 41.6 0 0 0 11.17-20.19 35.2 35.2 0 0 1 23.44 33.16" style="fill-rule:evenodd;clip-rule:evenodd;fill:#ff4141"/>
  <path d="M93.97 35.16a35.16 35.16 0 1 1-70.32 0 35.16 35.16 0 0 1 70.32 0" style="fill-rule:evenodd;clip-rule:evenodd;fill:#00a1f1"/>
</svg>
